<svg width="250" height="257" viewBox="0 0 250 257" fill="none" xmlns="http://www.w3.org/2000/svg">
<rect width="250" height="250" fill="#131313"/>
<path d="M73.004 225.332C56.428 225.332 46.808 216.748 41.924 206.388L58.796 196.176C62.052 201.948 65.012 206.832 72.116 206.832C78.924 206.832 83.216 204.168 83.216 193.808V123.36H103.936V194.104C103.936 215.564 91.356 225.332 73.004 225.332ZM123.93 224V122.324H125.558L175.138 176.788L223.978 122.324H225.754V224H205.774V186.26C205.774 179.452 206.514 168.648 206.514 168.648C206.514 168.648 200.446 177.528 195.71 182.856L175.73 205.204H173.806L153.826 182.856C149.09 177.528 143.022 168.648 143.022 168.648C143.022 168.648 143.762 179.452 143.762 186.26V224H123.93Z" fill="white"/>
</svg>
